<svg width="369" height="44" viewBox="0 0 369 44" fill="none" xmlns="http://www.w3.org/2000/svg">
<path d="M11.8559 17.384C9.74394 17.384 8.11194 19.064 8.11194 21.224C8.11194 23.576 9.69594 25.256 11.8559 25.256C14.0159 25.256 15.6479 23.576 15.6479 21.32C15.6479 19.112 14.0159 17.384 11.8559 17.384ZM14.7359 21.464C14.6879 23.144 13.2959 24.392 11.6639 24.296C11.6159 24.008 11.5679 23.768 11.5679 23.624C11.5679 22.472 12.7679 21.32 13.9199 21.32C14.1119 21.32 14.3999 21.368 14.7359 21.464ZM11.5679 11.048C4.70394 11.048 0.335938 14.984 0.335938 21.176C0.335938 23.912 1.39194 26.36 4.03194 29.672C7.39194 33.896 10.3679 35.48 15.0239 35.48C18.4799 35.48 21.5519 34.52 23.4239 32.84C25.4879 30.968 26.6399 28.28 26.6399 25.352C26.6399 23.912 26.3039 22.136 25.8239 21.032C25.1039 19.544 22.7519 16.328 20.9759 14.504C18.7679 12.248 15.5039 11.048 11.5679 11.048ZM11.6159 12.152C18.0479 12.152 22.2719 15.752 22.2719 21.272C22.2719 26.6 18.0479 30.344 12.0479 30.344C9.35994 30.344 6.57594 29.384 4.60794 27.704C2.49594 25.976 1.53594 23.816 1.53594 20.888C1.53594 18.584 2.49594 16.28 4.12794 14.696C5.95194 12.968 8.30394 12.152 11.6159 12.152Z" fill="black"/>
<path d="M44.9988 5.24L41.5908 1.016C39.7668 0.632003 38.9028 0.536001 37.7028 0.536001C32.1828 0.536001 28.9188 3.56 28.9188 8.648V11.528H26.6148V18.2L28.9188 21.032V30.968L32.3268 35H41.9268V23.192H44.7108V17.192L41.0148 12.296C41.7348 11.336 42.6948 10.856 43.8948 10.856C44.2308 10.856 44.4708 10.904 44.9988 11.048V5.24ZM40.6788 7.016C38.0868 7.112 37.2228 8.552 37.3668 12.632H40.3428V17.864H37.6068V29.864H30.0228V17.864H27.7188V12.632H30.0228V8.648C30.0228 4.232 32.8068 1.688 37.6068 1.688C38.5188 1.688 39.2388 1.736 40.6788 1.976V7.016Z" fill="black"/>
<path d="M64.9076 5.24L61.4996 1.016C59.6756 0.632003 58.8116 0.536001 57.6116 0.536001C52.0916 0.536001 48.8276 3.56 48.8276 8.648V11.528H46.5236V18.2L48.8276 21.032V30.968L52.2356 35H61.8356V23.192H64.6196V17.192L60.9236 12.296C61.6436 11.336 62.6036 10.856 63.8036 10.856C64.1396 10.856 64.3796 10.904 64.9076 11.048V5.24ZM60.5876 7.016C57.9956 7.112 57.1316 8.552 57.2756 12.632H60.2516V17.864H57.5156V29.864H49.9316V17.864H47.6276V12.632H49.9316V8.648C49.9316 4.232 52.7156 1.688 57.5156 1.688C58.4276 1.688 59.1476 1.736 60.5876 1.976V7.016Z" fill="black"/>
<path d="M67.7763 30.968L71.0883 35H80.6883V15.512L78.5763 12.872C80.1603 12.152 81.0243 10.808 81.0243 9.128C81.0243 7.544 80.5443 6.728 77.1363 2.552C76.0323 1.16 74.4483 0.440002 72.5283 0.440002C69.6003 0.440002 67.3923 2.36 67.3923 4.952C67.3923 6.008 67.7283 6.92 68.4963 7.88L71.4723 11.528H67.7763V30.968ZM68.8803 29.864V12.632H76.3683V29.864H68.8803ZM72.5763 1.544C74.8803 1.544 76.7523 3.08 76.7523 5C76.7523 6.92 74.9763 8.408 72.6243 8.408C70.2243 8.408 68.4963 6.968 68.4963 4.952C68.4963 2.984 70.2243 1.544 72.5763 1.544Z" fill="black"/>
<path d="M102.151 16.136L98.7434 11.816C96.9674 11.336 95.0474 11.048 93.2234 11.048C86.9834 11.048 82.4234 15.464 82.4234 21.512C82.4234 23.672 82.9514 25.544 84.0554 27.176C85.6394 29.576 88.3754 32.696 89.7194 33.56C91.7354 34.904 93.7994 35.48 96.2954 35.48C98.5994 35.48 100.663 35.096 102.679 34.28L102.823 27.656L99.0794 23.096C98.0234 23.768 96.9674 24.104 95.7194 24.104H95.0474V23.816C95.0954 22.28 96.3914 21.128 98.0714 21.128C99.4634 21.128 100.711 21.56 102.151 22.52V16.136ZM98.3594 17.816C97.2074 17.288 96.4874 17.096 95.5754 17.096C93.0314 17.096 91.1594 18.872 91.1594 21.224C91.1594 23.576 93.0794 25.304 95.6234 25.304C96.2954 25.304 96.7274 25.208 97.8314 24.872C98.0234 24.824 98.2154 24.776 98.5034 24.68L98.3594 29.672C96.8234 30.2 94.9514 30.488 93.0794 30.488C87.3194 30.488 83.5274 26.936 83.5274 21.512C83.5274 15.896 87.5594 12.2 93.6074 12.2C95.2394 12.2 96.5354 12.392 98.3594 12.824V17.816Z" fill="black"/>
<path d="M119.295 18.728C119.103 16.424 117.855 15.128 115.935 15.128C113.967 15.128 112.671 16.376 112.143 18.728H119.295ZM130.575 25.304C130.431 22.664 129.423 20.408 127.023 17.144C123.855 12.872 120.495 11.048 115.887 11.048C113.055 11.048 110.319 11.864 108.207 13.352C105.519 15.272 104.127 18.008 104.127 21.464C104.127 24.104 104.703 25.784 106.431 28.04C109.311 31.88 110.079 32.744 111.135 33.464C113.247 34.856 115.551 35.48 118.623 35.48C121.743 35.48 124.143 34.856 126.399 33.416C128.271 32.264 128.943 31.496 129.807 29.576L126.399 25.304H130.575ZM112.143 21.944C112.239 24.872 113.775 26.888 115.935 26.888C117.087 26.888 118.143 26.36 118.911 25.304H125.631C124.767 26.888 124.191 27.608 123.279 28.328C121.551 29.768 118.959 30.488 115.839 30.488C109.263 30.488 105.231 27.032 105.231 21.464C105.231 18.728 106.239 16.424 108.063 14.888C110.079 13.16 112.863 12.152 115.647 12.152C118.863 12.152 121.935 13.352 123.711 15.32C125.295 17.048 125.967 18.68 126.399 21.944H112.143Z" fill="black"/>
<path d="M150.933 5.048H141.525V11.528H139.317V18.344L141.525 21.032V30.968L145.077 35H154.101V21.896H157.029V15.992L154.101 12.296V8.792L150.933 5.048ZM150.117 6.152V12.632H153.093V17.72H150.117V29.864H142.629V17.72H140.421V12.632H142.629V6.152H150.117Z" fill="black"/>
<path d="M171.763 17.192C169.507 17.192 167.731 18.968 167.731 21.224C167.731 23.624 169.411 25.352 171.811 25.352C174.067 25.352 175.747 23.624 175.747 21.272C175.747 18.92 174.067 17.192 171.763 17.192ZM174.691 21.32C174.787 23.096 173.491 24.344 171.715 24.296C171.619 23.96 171.571 23.624 171.571 23.48C171.571 22.28 172.723 21.224 173.923 21.224C174.115 21.224 174.403 21.272 174.691 21.32ZM187.027 15.752L183.667 11.528H174.163V13.352C171.955 11.72 170.275 11.048 168.211 11.048C163.075 11.048 159.379 15.416 159.379 21.464C159.379 24.728 160.387 27.128 163.219 30.728C166.099 34.28 168.067 35.48 171.235 35.48C173.299 35.48 175.123 34.856 176.851 33.56L178.099 35H187.027V15.752ZM182.611 12.632V29.864H175.843V26.84C173.347 29.432 171.139 30.488 168.307 30.488C163.603 30.488 160.531 26.936 160.531 21.416C160.531 15.848 163.603 12.152 168.163 12.152C170.803 12.152 173.107 13.304 175.267 15.752V12.632H182.611Z" fill="black"/>
<path d="M189.826 30.968L193.186 35H202.114V28.616L207.106 35H220.114L210.898 23.192L216.658 15.704L213.298 11.528H203.65L202.114 13.688V5.24L199.09 1.4H189.826V30.968ZM190.93 29.864V2.504H198.418V21.368L204.274 12.632H212.674L206.29 20.888L213.346 29.864H204.61L198.418 21.752V29.864H190.93Z" fill="black"/>
<path d="M229.982 17.192C227.726 17.192 225.95 18.968 225.95 21.224C225.95 23.624 227.63 25.352 230.03 25.352C232.286 25.352 233.966 23.624 233.966 21.272C233.966 18.92 232.286 17.192 229.982 17.192ZM232.91 21.32C233.006 23.096 231.71 24.344 229.934 24.296C229.838 23.96 229.79 23.624 229.79 23.48C229.79 22.28 230.942 21.224 232.142 21.224C232.334 21.224 232.622 21.272 232.91 21.32ZM245.246 15.752L241.886 11.528H232.382V13.352C230.174 11.72 228.494 11.048 226.43 11.048C221.294 11.048 217.598 15.416 217.598 21.464C217.598 24.728 218.606 27.128 221.438 30.728C224.318 34.28 226.286 35.48 229.454 35.48C231.518 35.48 233.342 34.856 235.07 33.56L236.318 35H245.246V15.752ZM240.83 12.632V29.864H234.062V26.84C231.566 29.432 229.358 30.488 226.526 30.488C221.822 30.488 218.75 26.936 218.75 21.416C218.75 15.848 221.822 12.152 226.382 12.152C229.022 12.152 231.326 13.304 233.486 15.752V12.632H240.83Z" fill="black"/>
<path d="M248.044 30.968L251.26 35H260.908V30.152L264.892 35H274.204V23.144C274.204 22.184 274.06 21.128 273.82 19.88C273.58 18.824 272.812 17.528 271.324 15.608C268.684 12.248 266.764 11.048 264.028 11.048C262.012 11.048 259.852 11.864 258.172 13.208L256.636 11.528H248.044V30.968ZM249.148 29.864V12.632H256.156V16.568C258.94 13.496 261.292 12.152 264.028 12.152C265.468 12.152 266.86 12.632 267.868 13.544C269.26 14.792 269.836 16.472 269.836 19.544V29.864H262.444V20.84C262.444 18.68 261.388 17.432 259.516 17.432C257.74 17.432 256.636 18.728 256.636 20.84V29.864H249.148Z" fill="black"/>
<path d="M287.149 17.384C285.037 17.384 283.405 19.064 283.405 21.224C283.405 23.576 284.989 25.256 287.149 25.256C289.309 25.256 290.941 23.576 290.941 21.32C290.941 19.112 289.309 17.384 287.149 17.384ZM290.029 21.464C289.981 23.144 288.589 24.392 286.957 24.296C286.909 24.008 286.861 23.768 286.861 23.624C286.861 22.472 288.061 21.32 289.213 21.32C289.405 21.32 289.693 21.368 290.029 21.464ZM286.861 11.048C279.997 11.048 275.629 14.984 275.629 21.176C275.629 23.912 276.685 26.36 279.325 29.672C282.685 33.896 285.661 35.48 290.317 35.48C293.773 35.48 296.845 34.52 298.717 32.84C300.781 30.968 301.933 28.28 301.933 25.352C301.933 23.912 301.597 22.136 301.117 21.032C300.397 19.544 298.045 16.328 296.269 14.504C294.061 12.248 290.797 11.048 286.861 11.048ZM286.909 12.152C293.341 12.152 297.565 15.752 297.565 21.272C297.565 26.6 293.341 30.344 287.341 30.344C284.653 30.344 281.869 29.384 279.901 27.704C277.789 25.976 276.829 23.816 276.829 20.888C276.829 18.584 277.789 16.28 279.421 14.696C281.245 12.968 283.597 12.152 286.909 12.152Z" fill="black"/>
<path d="M303.732 30.968L307.188 35H316.596V27.032C316.596 24.008 317.652 22.616 319.86 22.616C320.964 22.616 321.828 22.856 322.932 23.432V15.176L319.668 11.048C317.988 10.952 315.588 11.72 314.388 12.776L313.428 11.528H303.732V30.968ZM304.836 29.864V12.632H312.132V16.904C314.196 13.496 316.164 12.152 319.14 12.152V18.92C318.276 18.632 317.796 18.536 317.124 18.536C314.148 18.536 312.276 20.552 312.276 23.768V29.864H304.836Z" fill="black"/>
<path d="M324.966 30.968L328.278 35H337.878V15.512L335.766 12.872C337.35 12.152 338.214 10.808 338.214 9.128C338.214 7.544 337.734 6.728 334.326 2.552C333.222 1.16 331.638 0.440002 329.718 0.440002C326.79 0.440002 324.582 2.36 324.582 4.952C324.582 6.008 324.918 6.92 325.686 7.88L328.662 11.528H324.966V30.968ZM326.07 29.864V12.632H333.558V29.864H326.07ZM329.766 1.544C332.07 1.544 333.942 3.08 333.942 5C333.942 6.92 332.166 8.408 329.814 8.408C327.414 8.408 325.686 6.968 325.686 4.952C325.686 2.984 327.414 1.544 329.766 1.544Z" fill="black"/>
<path d="M352.669 17.288C350.461 17.288 348.637 19.112 348.637 21.32C348.637 23.72 350.365 25.448 352.717 25.448C354.973 25.448 356.653 23.72 356.653 21.416C356.653 19.064 354.925 17.288 352.669 17.288ZM355.597 21.512C355.453 23.48 354.349 24.536 352.525 24.44C352.429 24.104 352.381 23.816 352.381 23.624C352.381 22.472 353.629 21.32 354.829 21.368C355.021 21.368 355.261 21.416 355.597 21.512ZM340.669 39.56L344.125 43.544H353.629V33.656C356.077 35.096 357.229 35.48 359.197 35.48C364.621 35.48 368.125 31.496 368.125 25.304C368.125 21.992 367.501 20.312 365.005 16.952C361.741 12.632 359.341 11.048 355.885 11.048C354.061 11.048 352.717 11.48 350.701 12.68L349.645 11.528H340.669V39.56ZM341.773 38.408V12.632H348.541V15.848C351.325 13.16 353.341 12.152 355.981 12.152C360.589 12.152 363.901 15.896 363.901 21.128C363.901 26.744 360.829 30.344 356.029 30.344C353.821 30.344 352.141 29.672 349.309 27.656V38.408H341.773Z" fill="black"/>
</svg>
